<?xml version="1.0" encoding="UTF-8"?>
<svg id="_图层_2" data-name="图层 2" xmlns="http://www.w3.org/2000/svg" viewBox="0 0 512 512" fill="currentColor">
  <g id="_图层_1-2" data-name="图层 1">
    <path d="M119.04,136.73c2.46,1.14,20.37,11.55,39.72,22.99,19.36,11.55,42.52,25.28,51.47,30.54,19.47,11.55,22.38,14.18,23.16,21.05,1.01,9.04-1.45,11.09-31,27.91-14.43,8.24-38.83,22.07-54.27,30.88-24.95,14.18-28.65,15.9-34.35,16.36-5.15.46-7.16,0-10.41-2.06-4.25-2.75-7.27-7.43-7.27-11.67,0-6.86,2.8-8.92,44.42-32.37,22.04-12.47,41.96-23.79,44.31-25.16l4.36-2.63-6.6-4c-3.58-2.17-23.5-13.84-44.2-25.85-22.72-13.27-38.83-23.33-40.51-25.39-7.39-9.04.34-22.76,12.76-22.76,2.13,0,5.93,1.03,8.39,2.17ZM372.38,152.17c3.58,1.94,10.52,9.49,12.76,14.07,3.13,6.18,6.15,18.19,7.61,30.42,2.57,21.5-1.57,43.46-10.74,57.42-15.11,22.99-37.6,11.09-44.65-23.68-2.24-10.75-2.24-31.45-.22-43.23,2.91-16.47,10.52-30.54,18.8-34.66,4.59-2.4,12.31-2.52,16.45-.34ZM422.29,293.65c.78,2.63-4.92,13.15-13.32,24.59-25.29,34.54-77.55,60.73-134.28,67.48-20.37,2.4-52.26,1.6-71.73-1.72-38.49-6.75-70.83-20.82-97.46-42.66-6.94-5.72-8.17-7.89-6.15-11.09.78-1.26,3.47-.8,15.33,2.63,18.13,5.15,30.88,8.01,48,10.64,19.13,2.86,82.8,2.86,104.06,0,62.44-8.58,112.68-25.51,147.7-49.87,4.25-2.97,6.94-2.97,7.83,0Z"/>
  </g>
</svg>